<svg width="16" height="16" viewBox="0 0 16 16" fill="none" xmlns="http://www.w3.org/2000/svg">
    <path d="M1.33331 6.33333V2.66667C1.33331 2.48986 1.40355 2.32029 1.52858 2.19526C1.6536 2.07024 1.82317 2 1.99998 2H14C14.1768 2 14.3464 2.07024 14.4714 2.19526C14.5964 2.32029 14.6666 2.48986 14.6666 2.66667V6.33333C14.2246 6.33333 13.8007 6.50893 13.4881 6.82149C13.1756 7.13405 13 7.55797 13 8C13 8.44203 13.1756 8.86595 13.4881 9.17851C13.8007 9.49107 14.2246 9.66667 14.6666 9.66667V13.3333C14.6666 13.5101 14.5964 13.6797 14.4714 13.8047C14.3464 13.9298 14.1768 14 14 14H1.99998C1.82317 14 1.6536 13.9298 1.52858 13.8047C1.40355 13.6797 1.33331 13.5101 1.33331 13.3333V9.66667C1.77534 9.66667 2.19926 9.49107 2.51182 9.17851C2.82438 8.86595 2.99998 8.44203 2.99998 8C2.99998 7.55797 2.82438 7.13405 2.51182 6.82149C2.19926 6.50893 1.77534 6.33333 1.33331 6.33333ZM2.66665 5.312C3.16745 5.5602 3.58896 5.94337 3.88365 6.41831C4.17834 6.89324 4.33448 7.44107 4.33448 8C4.33448 8.55894 4.17834 9.10676 3.88365 9.58169C3.58896 10.0566 3.16745 10.4398 2.66665 10.688V12.6667H13.3333V10.688C12.8325 10.4398 12.411 10.0566 12.1163 9.58169C11.8216 9.10676 11.6655 8.55894 11.6655 8C11.6655 7.44107 11.8216 6.89324 12.1163 6.41831C12.411 5.94337 12.8325 5.5602 13.3333 5.312V3.33333H2.66665V5.312ZM5.99998 6H9.99998V7.33333H5.99998V6ZM5.99998 8.66667H9.99998V10H5.99998V8.66667Z"
          fill="white"/>
</svg>
