<svg width="14" height="14" viewBox="0 0 14 14" fill="none" xmlns="http://www.w3.org/2000/svg">
<path d="M7 13.8406L3.28767 10.1283C2.55345 9.39408 2.05344 8.45861 1.85087 7.44022C1.64831 6.42182 1.75228 5.36622 2.14964 4.40691C2.547 3.4476 3.21991 2.62767 4.08327 2.0508C4.94662 1.47392 5.96165 1.16602 7 1.16602C8.03835 1.16602 9.05338 1.47392 9.91674 2.0508C10.7801 2.62767 11.453 3.4476 11.8504 4.40691C12.2477 5.36622 12.3517 6.42182 12.1491 7.44022C11.9466 8.45861 11.4466 9.39408 10.7123 10.1283L7 13.8406ZM9.8875 9.30347C10.4585 8.73239 10.8474 8.00481 11.0049 7.21273C11.1624 6.42065 11.0815 5.59965 10.7725 4.85354C10.4634 4.10744 9.94003 3.46973 9.26854 3.02107C8.59704 2.5724 7.80759 2.33293 7 2.33293C6.19241 2.33293 5.40296 2.5724 4.73147 3.02107C4.05998 3.46973 3.5366 4.10744 3.22753 4.85354C2.91846 5.59965 2.83758 6.42065 2.9951 7.21273C3.15262 8.00481 3.54148 8.73239 4.1125 9.30347L7 12.191L9.8875 9.30347ZM7 7.58264C6.69058 7.58264 6.39384 7.45972 6.17504 7.24093C5.95625 7.02214 5.83334 6.72539 5.83334 6.41597C5.83334 6.10655 5.95625 5.8098 6.17504 5.59101C6.39384 5.37222 6.69058 5.2493 7 5.2493C7.30942 5.2493 7.60617 5.37222 7.82496 5.59101C8.04375 5.8098 8.16667 6.10655 8.16667 6.41597C8.16667 6.72539 8.04375 7.02214 7.82496 7.24093C7.60617 7.45972 7.30942 7.58264 7 7.58264Z" fill="black"/>
</svg>
