<svg width="36" height="36" viewBox="0 0 36 36" fill="none" xmlns="http://www.w3.org/2000/svg">
<rect width="36" height="36" rx="18" fill="#F2F2F2"/>
<path d="M22.1667 10.5007H25.5C25.721 10.5007 25.933 10.5884 26.0893 10.7447C26.2455 10.901 26.3333 11.113 26.3333 11.334V24.6673C26.3333 24.8883 26.2455 25.1003 26.0893 25.2566C25.933 25.4129 25.721 25.5007 25.5 25.5007H10.5C10.279 25.5007 10.067 25.4129 9.91075 25.2566C9.75447 25.1003 9.66667 24.8883 9.66667 24.6673V11.334C9.66667 11.113 9.75447 10.901 9.91075 10.7447C10.067 10.5884 10.279 10.5007 10.5 10.5007H13.8333V8.83398H15.5V10.5007H20.5V8.83398H22.1667V10.5007ZM11.3333 15.5007V23.834H24.6667V15.5007H11.3333ZM13 17.1673H14.6667V18.834H13V17.1673ZM13 20.5007H14.6667V22.1673H13V20.5007ZM16.3333 17.1673H23V18.834H16.3333V17.1673ZM16.3333 20.5007H20.5V22.1673H16.3333V20.5007Z" fill="black"/>
</svg>
