<svg width="36" height="36" viewBox="0 0 36 36" fill="none" xmlns="http://www.w3.org/2000/svg">
<rect width="36" height="36" rx="18" fill="#F2F2F2"/>
<path d="M18 9.66602C20.2642 9.66602 20.5467 9.67435 21.435 9.71602C22.3225 9.75768 22.9267 9.89685 23.4583 10.1035C24.0083 10.3152 24.4717 10.6018 24.935 11.0643C25.3588 11.4809 25.6866 11.9848 25.8958 12.541C26.1017 13.0718 26.2417 13.6768 26.2833 14.5643C26.3225 15.4527 26.3333 15.7352 26.3333 17.9993C26.3333 20.2635 26.325 20.546 26.2833 21.4343C26.2417 22.3218 26.1017 22.926 25.8958 23.4577C25.6872 24.0142 25.3593 24.5182 24.935 24.9344C24.5183 25.3579 24.0144 25.6858 23.4583 25.8952C22.9275 26.101 22.3225 26.241 21.435 26.2827C20.5467 26.3218 20.2642 26.3327 18 26.3327C15.7358 26.3327 15.4533 26.3244 14.565 26.2827C13.6775 26.241 13.0733 26.101 12.5417 25.8952C11.9853 25.6864 11.4813 25.3585 11.065 24.9344C10.6412 24.5178 10.3133 24.0139 10.1042 23.4577C9.89751 22.9268 9.75834 22.3218 9.71667 21.4343C9.67751 20.546 9.66667 20.2635 9.66667 17.9993C9.66667 15.7352 9.67501 15.4527 9.71667 14.5643C9.75834 13.676 9.89751 13.0727 10.1042 12.541C10.3127 11.9845 10.6407 11.4804 11.065 11.0643C11.4814 10.6404 11.9854 10.3125 12.5417 10.1035C13.0733 9.89685 13.6767 9.75768 14.565 9.71602C15.4533 9.67685 15.7358 9.66602 18 9.66602ZM18 13.8327C16.8949 13.8327 15.8351 14.2717 15.0537 15.0531C14.2723 15.8345 13.8333 16.8943 13.8333 17.9993C13.8333 19.1044 14.2723 20.1642 15.0537 20.9456C15.8351 21.727 16.8949 22.166 18 22.166C19.1051 22.166 20.1649 21.727 20.9463 20.9456C21.7277 20.1642 22.1667 19.1044 22.1667 17.9993C22.1667 16.8943 21.7277 15.8345 20.9463 15.0531C20.1649 14.2717 19.1051 13.8327 18 13.8327ZM23.4167 13.6243C23.4167 13.3481 23.3069 13.0831 23.1116 12.8878C22.9162 12.6924 22.6513 12.5827 22.375 12.5827C22.0987 12.5827 21.8338 12.6924 21.6384 12.8878C21.4431 13.0831 21.3333 13.3481 21.3333 13.6243C21.3333 13.9006 21.4431 14.1656 21.6384 14.3609C21.8338 14.5563 22.0987 14.666 22.375 14.666C22.6513 14.666 22.9162 14.5563 23.1116 14.3609C23.3069 14.1656 23.4167 13.9006 23.4167 13.6243ZM18 15.4993C18.663 15.4993 19.2989 15.7627 19.7678 16.2316C20.2366 16.7004 20.5 17.3363 20.5 17.9993C20.5 18.6624 20.2366 19.2983 19.7678 19.7671C19.2989 20.236 18.663 20.4993 18 20.4993C17.337 20.4993 16.7011 20.236 16.2322 19.7671C15.7634 19.2983 15.5 18.6624 15.5 17.9993C15.5 17.3363 15.7634 16.7004 16.2322 16.2316C16.7011 15.7627 17.337 15.4993 18 15.4993Z" fill="black"/>
</svg>
