<svg width="40" height="40" viewBox="0 0 40 40" fill="none" xmlns="http://www.w3.org/2000/svg">
<rect width="40" height="40" rx="20" fill="#F2F2F2"/>
<path d="M26.364 23.5362L24.95 22.1202L26.364 20.7062C26.8316 20.2427 27.2031 19.6913 27.4571 19.0838C27.7111 18.4763 27.8425 17.8246 27.844 17.1662C27.8454 16.5077 27.7168 15.8555 27.4655 15.2469C27.2142 14.6383 26.8451 14.0853 26.3795 13.6197C25.9139 13.1541 25.361 12.7851 24.7524 12.5338C24.1437 12.2824 23.4915 12.1538 22.833 12.1553C22.1746 12.1567 21.5229 12.2882 20.9154 12.5422C20.3079 12.7961 19.7566 13.1676 19.293 13.6352L17.879 15.0502L16.464 13.6362L17.88 12.2222C19.1928 10.9094 20.9734 10.1719 22.83 10.1719C24.6866 10.1719 26.4672 10.9094 27.78 12.2222C29.0928 13.5351 29.8304 15.3156 29.8304 17.1722C29.8304 19.0288 29.0928 20.8094 27.78 22.1222L26.365 23.5362H26.364ZM23.536 26.3642L22.121 27.7782C20.8082 29.0911 19.0276 29.8286 17.171 29.8286C15.3144 29.8286 13.5338 29.0911 12.221 27.7782C10.9082 26.4654 10.1707 24.6848 10.1707 22.8282C10.1707 20.9716 10.9082 19.1911 12.221 17.8782L13.636 16.4642L15.05 17.8802L13.636 19.2942C13.1684 19.7578 12.7969 20.3091 12.5429 20.9166C12.289 21.5241 12.1575 22.1758 12.156 22.8343C12.1546 23.4927 12.2832 24.145 12.5345 24.7536C12.7859 25.3622 13.1549 25.9152 13.6205 26.3808C14.0861 26.8463 14.6391 27.2154 15.2477 27.4667C15.8563 27.718 16.5085 27.8466 17.167 27.8452C17.8254 27.8438 18.4771 27.7123 19.0846 27.4583C19.6921 27.2043 20.2435 26.8329 20.707 26.3652L22.121 24.9512L23.536 26.3652V26.3642ZM22.828 15.7572L24.243 17.1722L17.172 24.2422L15.757 22.8282L22.828 15.7582V15.7572Z" fill="black"/>
</svg>
