<svg width="64" height="64" viewBox="0 0 64 64" fill="none" xmlns="http://www.w3.org/2000/svg">
<rect width="64" height="64" rx="32" fill="#F2F2F2"/>
<path d="M29.333 30.6667V26.6667L35.9997 32.0001L29.333 37.3334V33.3334H17.333V30.6667H29.333ZM19.277 36.0001H22.109C23.0397 38.2922 24.738 40.1897 26.9132 41.368C29.0884 42.5463 31.6054 42.9322 34.0337 42.4597C36.4621 41.9872 38.6508 40.6857 40.2254 38.7777C41.8001 36.8698 42.663 34.4739 42.6663 32.0001C42.6677 29.5236 41.8074 27.1239 40.2329 25.2124C38.6584 23.3009 36.4678 21.9968 34.037 21.5238C31.6061 21.0508 29.0864 21.4384 26.91 22.6201C24.7337 23.8017 23.0363 25.7038 22.109 28.0001H19.277C20.9757 22.5907 26.029 18.6667 31.9997 18.6667C39.3637 18.6667 45.333 24.6361 45.333 32.0001C45.333 39.3641 39.3637 45.3334 31.9997 45.3334C26.029 45.3334 20.9757 41.4094 19.277 36.0001Z" fill="black"/>
</svg>
