<svg width="108" height="16" viewBox="0 0 108 16" fill="none" xmlns="http://www.w3.org/2000/svg">
<path d="M10.4865 10.7892C10.1622 12.2595 9.05946 13.1243 7.3946 13.1243C6.07568 13.1243 5.05946 12.6486 4.34595 11.6973C3.65405 10.7243 3.30811 9.49189 3.30811 8C3.30811 6.48649 3.65405 5.25406 4.34595 4.3027C5.05946 3.35135 6.07568 2.87568 7.3946 2.87568C8.97297 2.87568 9.94595 3.5027 10.3135 4.77838H13.6865C13.4054 3.32973 12.7135 2.18378 11.5892 1.31892C10.4865 0.432433 9.08108 0 7.3946 0C5.08108 0 3.28649 0.735136 1.96757 2.20541C0.648649 3.65405 0 5.6 0 8C0 10.4 0.648649 12.3459 1.94595 13.8162C3.26486 15.2649 5.08108 16 7.3946 16C9.16757 16 10.6162 15.5243 11.7622 14.573C12.9081 13.6216 13.6 12.3676 13.8378 10.7892H10.4865Z" fill="black"/>
<path d="M24.612 9.96757C24.612 11.8919 23.4444 13.1243 21.3687 13.1243C19.3147 13.1243 18.1255 11.8919 18.1255 9.96757V0.281081H14.9039V10.0324C14.9039 13.8378 17.2174 16 21.3471 16C25.4985 16 27.8336 13.8378 27.8336 10.0324V0.281081H24.612V9.96757Z" fill="black"/>
<path d="M32.8664 0.281081H29.6448V15.7189H41.0394V12.7784H32.8664V0.281081Z" fill="black"/>
<path d="M37.9529 0.281081V3.11351H42.7529V15.7189H45.9745V3.11351H50.7745V0.281081H37.9529Z" fill="black"/>
<path d="M52.291 2.24865C50.9721 3.74054 50.3235 5.64324 50.3235 8C50.3235 10.3568 50.9721 12.2811 52.291 13.773C53.61 15.2649 55.4694 16 57.8478 16C60.2262 16 62.064 15.2649 63.3829 13.773C64.7019 12.2811 65.3721 10.3568 65.3721 8C65.3721 5.64324 64.7019 3.74054 63.3829 2.24865C62.064 0.756757 60.2262 0 57.8478 0C55.4694 0 53.61 0.756757 52.291 2.24865ZM54.691 11.6973C53.9775 10.7459 53.6316 9.51352 53.6316 8C53.6316 6.48649 53.9775 5.25406 54.691 4.3027C55.4046 3.35135 56.464 2.87568 57.8478 2.87568C59.2316 2.87568 60.2694 3.35135 60.9829 4.3027C61.6964 5.25406 62.064 6.48649 62.064 8C62.064 9.51352 61.6964 10.7459 60.9829 11.6973C60.2694 12.6486 59.2316 13.1243 57.8478 13.1243C56.464 13.1243 55.4046 12.6486 54.691 11.6973Z" fill="black"/>
<path d="M66.2358 0.281081V3.15676H73.7385V3.76216L65.652 12.2378V15.7189H78.1493V12.8432H69.7601V12.2378L77.8034 3.76216V0.281081H66.2358Z" fill="black"/>
<path d="M80.0182 2.24865C78.6993 3.74054 78.0507 5.64324 78.0507 8C78.0507 10.3568 78.6993 12.2811 80.0182 13.773C81.3372 15.2649 83.1966 16 85.575 16C87.9534 16 89.7912 15.2649 91.1101 13.773C92.4291 12.2811 93.0993 10.3568 93.0993 8C93.0993 5.64324 92.4291 3.74054 91.1101 2.24865C89.7912 0.756757 87.9534 0 85.575 0C83.1966 0 81.3372 0.756757 80.0182 2.24865ZM82.4182 11.6973C81.7047 10.7459 81.3588 9.51352 81.3588 8C81.3588 6.48649 81.7047 5.25406 82.4182 4.3027C83.1318 3.35135 84.1912 2.87568 85.575 2.87568C86.9588 2.87568 87.9966 3.35135 88.7101 4.3027C89.4237 5.25406 89.7912 6.48649 89.7912 8C89.7912 9.51352 89.4237 10.7459 88.7101 11.6973C87.9966 12.6486 86.9588 13.1243 85.575 13.1243C84.1912 13.1243 83.1318 12.6486 82.4182 11.6973Z" fill="black"/>
<path d="M104.622 10.7459H104.06L98.3954 0.281081H94.2225V15.7189H97.163V5.25405H97.7252L103.39 15.7189H107.563V0.281081H104.622V10.7459Z" fill="black"/>
</svg>
