<svg width="243" height="36" viewBox="0 0 243 36" fill="none" xmlns="http://www.w3.org/2000/svg">
<path d="M23.5946 24.2757C22.8649 27.5838 20.3838 29.5297 16.6378 29.5297C13.6703 29.5297 11.3838 28.4595 9.77838 26.3189C8.22162 24.1297 7.44324 21.3568 7.44324 18C7.44324 14.5946 8.22162 11.8216 9.77838 9.68108C11.3838 7.54054 13.6703 6.47027 16.6378 6.47027C20.1892 6.47027 22.3784 7.88108 23.2054 10.7514H30.7946C30.1622 7.49189 28.6054 4.91351 26.0757 2.96757C23.5946 0.972975 20.4324 0 16.6378 0C11.4324 0 7.39459 1.65406 4.42703 4.96216C1.45946 8.22162 0 12.6 0 18C0 23.4 1.45946 27.7784 4.37838 31.0865C7.34595 34.3459 11.4324 36 16.6378 36C20.627 36 23.8865 34.9297 26.4649 32.7892C29.0432 30.6487 30.6 27.827 31.1351 24.2757H23.5946Z" fill="white"/>
<path d="M55.377 22.427C55.377 26.7568 52.75 29.5297 48.0797 29.5297C43.4581 29.5297 40.7824 26.7568 40.7824 22.427V0.632433H33.5337V22.573C33.5337 31.1351 38.7391 36 48.031 36C57.3716 36 62.6256 31.1351 62.6256 22.573V0.632433H55.377V22.427Z" fill="white"/>
<path d="M73.9494 0.632433H66.7007V35.3676H92.3386V28.7514H73.9494V0.632433Z" fill="white"/>
<path d="M85.394 0.632433V7.00541H96.194V35.3676H103.443V7.00541H114.243V0.632433H85.394Z" fill="white"/>
<path d="M117.655 5.05946C114.687 8.41622 113.228 12.6973 113.228 18C113.228 23.3027 114.687 27.6324 117.655 30.9892C120.622 34.3459 124.806 36 130.158 36C135.509 36 139.644 34.3459 142.612 30.9892C145.579 27.6324 147.087 23.3027 147.087 18C147.087 12.6973 145.579 8.41622 142.612 5.05946C139.644 1.7027 135.509 0 130.158 0C124.806 0 120.622 1.7027 117.655 5.05946ZM123.055 26.3189C121.449 24.1784 120.671 21.4054 120.671 18C120.671 14.5946 121.449 11.8216 123.055 9.68108C124.66 7.54054 127.044 6.47027 130.158 6.47027C133.271 6.47027 135.606 7.54054 137.212 9.68108C138.817 11.8216 139.644 14.5946 139.644 18C139.644 21.4054 138.817 24.1784 137.212 26.3189C135.606 28.4595 133.271 29.5297 130.158 29.5297C127.044 29.5297 124.66 28.4595 123.055 26.3189Z" fill="white"/>
<path d="M149.031 0.632433V7.1027H165.912V8.46487L147.717 27.5351V35.3676H175.836V28.8973H156.96V27.5351L175.058 8.46487V0.632433H149.031Z" fill="white"/>
<path d="M180.041 5.05946C177.073 8.41622 175.614 12.6973 175.614 18C175.614 23.3027 177.073 27.6324 180.041 30.9892C183.009 34.3459 187.192 36 192.544 36C197.895 36 202.03 34.3459 204.998 30.9892C207.965 27.6324 209.473 23.3027 209.473 18C209.473 12.6973 207.965 8.41622 204.998 5.05946C202.03 1.7027 197.895 0 192.544 0C187.192 0 183.009 1.7027 180.041 5.05946ZM185.441 26.3189C183.836 24.1784 183.057 21.4054 183.057 18C183.057 14.5946 183.836 11.8216 185.441 9.68108C187.046 7.54054 189.43 6.47027 192.544 6.47027C195.657 6.47027 197.992 7.54054 199.598 9.68108C201.203 11.8216 202.03 14.5946 202.03 18C202.03 21.4054 201.203 24.1784 199.598 26.3189C197.992 28.4595 195.657 29.5297 192.544 29.5297C189.43 29.5297 187.046 28.4595 185.441 26.3189Z" fill="white"/>
<path d="M235.401 24.1784H234.136L221.39 0.632433H212.001V35.3676H218.617V11.8216H219.882L232.628 35.3676H242.017V0.632433H235.401V24.1784Z" fill="white"/>
<path d="M192.433 12.2541C192.464 12.0651 192.736 12.0651 192.768 12.2541C193.244 15.1145 195.486 17.3559 198.346 17.8326C198.535 17.8641 198.535 18.1359 198.346 18.1674C195.486 18.6441 193.244 20.8855 192.768 23.7459C192.736 23.9349 192.464 23.9349 192.433 23.7459C191.956 20.8855 189.715 18.6441 186.854 18.1674C186.665 18.1359 186.665 17.8641 186.854 17.8326C189.715 17.3559 191.956 15.1145 192.433 12.2541Z" fill="white"/>
</svg>
