<svg width="36" height="36" viewBox="0 0 36 36" fill="none" xmlns="http://www.w3.org/2000/svg">
<rect width="36" height="36" rx="18" fill="#F2F2F2"/>
<path d="M23.3033 22.4693L18 27.7726L12.6967 22.4693C11.6478 21.4204 10.9335 20.084 10.6441 18.6292C10.3547 17.1743 10.5033 15.6663 11.0709 14.2959C11.6386 12.9254 12.5999 11.7541 13.8332 10.93C15.0666 10.1059 16.5166 9.66602 18 9.66602C19.4834 9.66602 20.9334 10.1059 22.1668 10.93C23.4001 11.7541 24.3614 12.9254 24.9291 14.2959C25.4968 15.6663 25.6453 17.1743 25.3559 18.6292C25.0665 20.084 24.3522 21.4204 23.3033 22.4693ZM18 20.4993C18.8841 20.4993 19.7319 20.1481 20.357 19.523C20.9821 18.8979 21.3333 18.05 21.3333 17.166C21.3333 16.2819 20.9821 15.434 20.357 14.8089C19.7319 14.1838 18.8841 13.8326 18 13.8326C17.1159 13.8326 16.2681 14.1838 15.643 14.8089C15.0179 15.434 14.6667 16.2819 14.6667 17.166C14.6667 18.05 15.0179 18.8979 15.643 19.523C16.2681 20.1481 17.1159 20.4993 18 20.4993ZM18 18.8326C17.558 18.8326 17.1341 18.657 16.8215 18.3445C16.5089 18.0319 16.3333 17.608 16.3333 17.166C16.3333 16.7239 16.5089 16.3 16.8215 15.9874C17.1341 15.6749 17.558 15.4993 18 15.4993C18.442 15.4993 18.866 15.6749 19.1785 15.9874C19.4911 16.3 19.6667 16.7239 19.6667 17.166C19.6667 17.608 19.4911 18.0319 19.1785 18.3445C18.866 18.657 18.442 18.8326 18 18.8326Z" fill="black"/>
</svg>
