<svg width="40" height="40" viewBox="0 0 40 40" fill="none" xmlns="http://www.w3.org/2000/svg">
<rect width="40" height="40" rx="20" fill="#F2F2F2"/>
<path d="M29.1776 23.9342C29.1543 23.8839 29.1325 23.8422 29.1123 23.8087C28.7778 23.2063 28.1385 22.4668 27.195 21.5901L27.175 21.57L27.1651 21.5602L27.155 21.5501H27.1448C26.7166 21.1419 26.4454 20.8674 26.3319 20.7268C26.1241 20.4591 26.0775 20.1882 26.1911 19.9136C26.2713 19.7062 26.5727 19.2681 27.0945 18.5988C27.369 18.244 27.5864 17.9598 27.7469 17.7456C28.9048 16.2063 29.4067 15.2227 29.2527 14.7943L29.1929 14.6942C29.1527 14.634 29.049 14.5788 28.8819 14.5286C28.7144 14.4784 28.5003 14.4701 28.2393 14.5035L25.3483 14.5235C25.3015 14.5069 25.2346 14.5085 25.1475 14.5286C25.0605 14.5487 25.017 14.5588 25.017 14.5588L24.9667 14.5839L24.9267 14.6141C24.8932 14.6341 24.8564 14.6692 24.8162 14.7194C24.7763 14.7694 24.7428 14.8282 24.7161 14.8951C24.4014 15.7048 24.0435 16.4577 23.6419 17.1536C23.3943 17.5686 23.1669 17.9282 22.9592 18.2328C22.7518 18.5372 22.5778 18.7615 22.4373 18.9052C22.2967 19.0491 22.1698 19.1644 22.0558 19.2515C21.942 19.3386 21.8551 19.3754 21.795 19.362C21.7347 19.3485 21.6779 19.3351 21.6241 19.3218C21.5305 19.2615 21.4552 19.1796 21.3984 19.0758C21.3414 18.9721 21.303 18.8416 21.2829 18.6843C21.2629 18.5269 21.2511 18.3916 21.2477 18.2778C21.2446 18.1641 21.246 18.0033 21.2528 17.7959C21.2598 17.5883 21.2629 17.4479 21.2629 17.3743C21.2629 17.1199 21.2679 16.8439 21.2778 16.5461C21.288 16.2483 21.2961 16.0124 21.303 15.8385C21.3098 15.6645 21.313 15.4804 21.313 15.2864C21.313 15.0923 21.3012 14.9401 21.2778 14.8296C21.2548 14.7193 21.2194 14.6122 21.1727 14.5084C21.1258 14.4046 21.0571 14.3244 20.9669 14.2674C20.8766 14.2106 20.7643 14.1654 20.6307 14.1319C20.2759 14.0516 19.8242 14.0082 19.2754 14.0014C18.0307 13.9881 17.2309 14.0684 16.8763 14.2424C16.7357 14.316 16.6086 14.4164 16.4948 14.5435C16.3744 14.6908 16.3576 14.7711 16.4445 14.7844C16.8461 14.8445 17.1304 14.9884 17.2977 15.2159L17.358 15.3365C17.4049 15.4235 17.4518 15.5775 17.4986 15.7983C17.5454 16.0191 17.5756 16.2633 17.5889 16.5309C17.6223 17.0195 17.6223 17.4377 17.5889 17.7857C17.5554 18.1338 17.5238 18.4047 17.4936 18.5988C17.4634 18.7929 17.4182 18.9502 17.358 19.0706C17.2977 19.191 17.2576 19.2646 17.2375 19.2914C17.2174 19.3181 17.2007 19.3349 17.1874 19.3415C17.1004 19.3749 17.01 19.3919 16.9163 19.3919C16.8226 19.3919 16.7089 19.345 16.575 19.2512C16.4413 19.1575 16.3024 19.0287 16.1585 18.8647C16.0146 18.7007 15.8523 18.4715 15.6716 18.1771C15.4909 17.8827 15.3035 17.5347 15.1095 17.1332L14.9489 16.842C14.8485 16.6547 14.7114 16.3819 14.5374 16.024C14.3633 15.6659 14.2094 15.3195 14.0756 14.9849C14.0221 14.8443 13.9418 14.7373 13.8347 14.6637L13.7845 14.6335C13.7511 14.6068 13.6975 14.5784 13.6239 14.5482C13.5503 14.518 13.4734 14.4963 13.393 14.483L10.6426 14.503C10.3615 14.503 10.1708 14.5666 10.0704 14.6938L10.0302 14.754C10.0101 14.7875 10 14.841 10 14.9147C10 14.9883 10.0201 15.0786 10.0603 15.1856C10.4618 16.1293 10.8984 17.0394 11.3702 17.916C11.842 18.7927 12.2519 19.4989 12.5998 20.0339C12.9478 20.5694 13.3025 21.0747 13.6639 21.5497C14.0253 22.0249 14.2645 22.3294 14.3815 22.4632C14.4987 22.5972 14.5908 22.6974 14.6577 22.7643L14.9087 23.0052C15.0693 23.1658 15.3051 23.3582 15.6163 23.5824C15.9276 23.8067 16.2722 24.0274 16.6503 24.2451C17.0285 24.4624 17.4684 24.6398 17.9704 24.7769C18.4723 24.9142 18.9608 24.9693 19.4359 24.9427H20.5904C20.8245 24.9225 21.0019 24.8489 21.1224 24.7218L21.1624 24.6715C21.1892 24.6316 21.2144 24.5695 21.2376 24.486C21.2611 24.4024 21.2727 24.3102 21.2727 24.21C21.2659 23.9223 21.2878 23.663 21.3378 23.4321C21.3879 23.2014 21.4449 23.0273 21.5087 22.9102C21.5724 22.7931 21.6444 22.6943 21.7244 22.6142C21.8047 22.5339 21.8618 22.4853 21.8954 22.4686C21.9287 22.4517 21.9553 22.4403 21.9754 22.4334C22.136 22.3799 22.325 22.4318 22.5427 22.5892C22.7602 22.7464 22.9643 22.9406 23.1551 23.1714C23.3459 23.4024 23.575 23.6615 23.8427 23.9493C24.1105 24.2371 24.3446 24.451 24.5453 24.5918L24.746 24.7122C24.88 24.7926 25.054 24.8662 25.2682 24.9331C25.482 25 25.6694 25.0167 25.8302 24.9833L28.3999 24.9432C28.654 24.9432 28.8518 24.9011 28.9921 24.8176C29.1327 24.734 29.2162 24.6418 29.2431 24.5416C29.27 24.4412 29.2714 24.3274 29.2482 24.2001C29.2244 24.0732 29.2009 23.9844 29.1776 23.9342Z" fill="black"/>
</svg>
